<svg height="2500" viewBox=".01 0 534.36 612.94" width="2179" xmlns="http://www.w3.org/2000/svg"><g fill="#ff421c"><path d="m410.2 40.86c-32.61 0-62.26 12.59-84.42 33.14-24.75-44.14-71.97-74-126.18-74-79.86 0-144.59 64.74-144.59 144.59s64.74 144.59 144.59 144.59c44.19 0 83.72-19.85 110.25-51.08 22.58 30.95 59.11 51.08 100.35 51.08 68.57 0 124.16-55.59 124.16-124.16s-55.59-124.16-124.16-124.16zm-210.6 190.17c-47.74 0-86.44-38.7-86.44-86.44s38.7-86.44 86.44-86.44 86.44 38.7 86.44 86.44-38.7 86.44-86.44 86.44zm210.6 0c-36.46 0-66.01-29.55-66.01-66.01s29.55-66.01 66.01-66.01 66.01 29.55 66.01 66.01-29.55 66.01-66.01 66.01z"/><path d="m427.49 314.33h-157.16c-47.66 0-88.02 31.21-101.8 74.3l-93.24-47.19a51.783 51.783 0 0 0 -23.42-5.59c-28.64 0-51.86 23.22-51.86 51.86v152.22c0 8.07 1.88 16.03 5.5 23.24 12.84 25.61 44 35.96 69.61 23.13l93.66-46.95c13.99 42.72 54.16 73.59 101.56 73.59h157.16c59.02 0 106.87-47.85 106.87-106.87v-84.87c0-59.02-47.85-106.87-106.87-106.87zm-352.15 210.44c-6.91 3.36-15.28.58-18.79-6.3a14.2 14.2 0 0 1 -1.54-6.43v-95.69c.14-7.69 6.42-13.88 14.14-13.88 2.2 0 4.38.52 6.35 1.5l87.95 44.16v31.7l-87.87 44.81-.24.12zm404.01-20.27v.88c-.48 29.1-24.22 52.55-53.44 52.55h-154.9c-29.1-.48-52.55-24.22-52.55-53.44v-82.61c.48-29.1 24.22-52.55 53.44-52.55h154.9c29.1.48 52.55 24.22 52.55 53.44z" fill-rule="evenodd"/></g></svg>